<svg xmlns="http://www.w3.org/2000/svg" xmlns:xlink="http://www.w3.org/1999/xlink" width="40" zoomAndPan="magnify" viewBox="0 0 30 30.000001" height="40" preserveAspectRatio="xMidYMid meet" version="1.0"><defs><clipPath id="7d2e171def"><path d="M 8.285156 2 L 27 2 L 27 25.988281 L 8.285156 25.988281 Z M 8.285156 2 " clip-rule="nonzero"/></clipPath><clipPath id="b215cb7fa2"><path d="M 8.324219 2.417969 L 26.609375 2.417969 L 26.609375 25.988281 L 8.324219 25.988281 Z M 8.324219 2.417969 " clip-rule="nonzero"/></clipPath><clipPath id="3b9b1e276d"><path d="M 15.097656 16.636719 L 15.328125 15.53125 C 14.953125 15.234375 14.925781 14.910156 15.242188 14.554688 C 15.554688 14.195312 15.882812 14.183594 16.222656 14.519531 L 18.425781 12.785156 C 18.398438 12.730469 18.378906 12.675781 18.367188 12.617188 L 15.527344 12.527344 C 15.496094 13.023438 15.234375 13.3125 14.746094 13.390625 L 15.003906 16.617188 C 15.035156 16.621094 15.066406 16.628906 15.097656 16.636719 M 15.300781 10.289062 C 15.34375 10.296875 15.386719 10.300781 15.429688 10.300781 C 15.914062 10.300781 16.195312 10.0625 16.28125 9.585938 L 18.230469 9.695312 C 18.265625 10.003906 18.4375 10.175781 18.746094 10.214844 L 18.820312 11.925781 C 18.558594 11.984375 18.40625 12.148438 18.363281 12.414062 L 15.515625 12.324219 C 15.460938 11.972656 15.269531 11.734375 14.9375 11.601562 Z M 14.625 9.753906 C 14.71875 9.980469 14.875 10.140625 15.101562 10.234375 C 14.960938 10.730469 14.863281 11.066406 14.71875 11.542969 C 14.675781 11.539062 14.867188 11.585938 14.589844 11.535156 C 13.933594 11.40625 13.113281 12.625 14.152344 13.296875 C 14.039062 13.625 13.882812 14.097656 13.757812 14.441406 C 13.71875 14.429688 13.683594 14.421875 13.644531 14.421875 L 13.632812 14.421875 C 13.242188 13.226562 12.855469 12.070312 12.445312 10.890625 C 12.679688 10.765625 12.796875 10.570312 12.796875 10.308594 C 12.796875 10.285156 12.792969 10.261719 12.792969 10.238281 Z M 13.242188 7.578125 C 13.367188 7.863281 13.566406 7.933594 13.839844 7.789062 L 14.785156 8.859375 C 14.609375 9.058594 14.539062 9.289062 14.574219 9.554688 L 12.742188 10.039062 C 12.597656 9.710938 12.347656 9.582031 11.996094 9.65625 C 11.644531 9.730469 11.46875 9.945312 11.46875 10.304688 C 11.46875 10.328125 11.46875 10.351562 11.472656 10.375 L 10.269531 10.695312 C 10.253906 10.660156 10.230469 10.628906 10.207031 10.601562 L 11.960938 8.128906 C 11.988281 8.136719 12.015625 8.140625 12.042969 8.140625 C 12.222656 8.140625 12.324219 8.050781 12.34375 7.875 Z M 15.238281 5.996094 C 15.085938 5.996094 14.96875 6.0625 14.882812 6.1875 C 14.796875 6.3125 14.78125 6.445312 14.835938 6.585938 C 14.890625 6.726562 14.992188 6.816406 15.136719 6.851562 C 15.285156 6.886719 15.414062 6.851562 15.527344 6.75 L 16.933594 7.707031 C 16.863281 7.867188 16.867188 8.023438 16.941406 8.179688 L 16.058594 8.839844 C 15.71875 8.484375 15.34375 8.445312 14.941406 8.726562 L 13.992188 7.65625 C 14.125 7.46875 14.113281 7.292969 13.964844 7.121094 C 13.8125 6.953125 13.636719 6.921875 13.4375 7.027344 L 12.328125 5.773438 C 12.335938 5.746094 12.339844 5.722656 12.339844 5.695312 C 12.339844 5.660156 12.332031 5.628906 12.324219 5.597656 L 13.195312 5.246094 C 13.316406 5.414062 13.476562 5.46875 13.675781 5.402344 C 13.875 5.339844 13.976562 5.203125 13.976562 4.992188 C 13.976562 4.972656 13.976562 4.949219 13.972656 4.929688 L 14.820312 4.585938 C 14.992188 4.78125 15.152344 4.773438 15.300781 4.554688 L 16.558594 4.878906 C 16.558594 4.886719 16.558594 4.890625 16.558594 4.894531 C 16.558594 5.0625 16.625 5.191406 16.761719 5.285156 C 16.898438 5.378906 17.042969 5.398438 17.199219 5.335938 C 17.355469 5.277344 17.449219 5.167969 17.488281 5.007812 C 17.527344 4.84375 17.492188 4.703125 17.378906 4.578125 C 17.269531 4.457031 17.132812 4.40625 16.96875 4.429688 C 16.804688 4.449219 16.683594 4.535156 16.609375 4.683594 L 15.351562 4.359375 C 15.332031 4.164062 15.226562 4.070312 15.035156 4.078125 C 14.839844 4.089844 14.742188 4.191406 14.742188 4.386719 L 14.742188 4.398438 L 13.894531 4.742188 C 13.773438 4.570312 13.613281 4.515625 13.414062 4.582031 C 13.210938 4.644531 13.113281 4.78125 13.113281 4.992188 C 13.113281 5.011719 13.113281 5.035156 13.117188 5.054688 L 12.1875 5.429688 C 12.035156 5.34375 11.902344 5.367188 11.796875 5.503906 C 11.6875 5.640625 11.691406 5.773438 11.8125 5.902344 C 11.933594 6.03125 12.066406 6.042969 12.207031 5.941406 L 13.285156 7.160156 C 13.25 7.207031 13.226562 7.261719 13.214844 7.320312 L 12.265625 7.632812 C 12.105469 7.457031 11.949219 7.460938 11.800781 7.648438 L 11.089844 7.402344 C 11.089844 7.390625 11.089844 7.371094 11.089844 7.355469 C 11.089844 7.199219 11.027344 7.074219 10.898438 6.984375 C 10.769531 6.890625 10.632812 6.875 10.480469 6.925781 C 10.332031 6.976562 10.238281 7.078125 10.195312 7.230469 C 10.152344 7.382812 10.179688 7.519531 10.277344 7.644531 C 10.375 7.765625 10.503906 7.820312 10.660156 7.8125 C 10.820312 7.804688 10.9375 7.730469 11.023438 7.597656 L 11.734375 7.839844 C 11.734375 7.859375 11.738281 7.875 11.742188 7.894531 L 9.640625 9.125 C 9.53125 9.007812 9.394531 8.960938 9.238281 8.984375 C 9.078125 9.007812 8.964844 9.09375 8.894531 9.238281 C 8.828125 9.382812 8.832031 9.527344 8.914062 9.664062 C 8.996094 9.804688 9.113281 9.878906 9.273438 9.890625 C 9.433594 9.902344 9.566406 9.84375 9.664062 9.71875 C 9.765625 9.59375 9.789062 9.453125 9.742188 9.300781 L 11.6875 8.160156 L 10.042969 10.484375 C 9.722656 10.351562 9.515625 10.453125 9.425781 10.789062 C 9.335938 11.125 9.464844 11.3125 9.808594 11.359375 C 10.152344 11.402344 10.324219 11.253906 10.324219 10.90625 C 10.324219 10.902344 10.324219 10.898438 10.324219 10.890625 L 11.523438 10.574219 C 11.597656 10.746094 11.722656 10.863281 11.898438 10.929688 L 11.394531 13.296875 C 11.277344 13.296875 11.171875 13.335938 11.085938 13.414062 L 10.363281 12.886719 C 10.429688 12.734375 10.421875 12.585938 10.332031 12.445312 C 10.242188 12.304688 10.117188 12.230469 9.949219 12.226562 C 9.78125 12.21875 9.648438 12.285156 9.550781 12.417969 C 9.453125 12.554688 9.429688 12.699219 9.488281 12.855469 C 9.542969 13.011719 9.652344 13.113281 9.8125 13.15625 C 9.976562 13.195312 10.117188 13.164062 10.242188 13.050781 L 10.964844 13.578125 C 10.914062 13.691406 10.910156 13.808594 10.949219 13.921875 L 9.152344 15.023438 C 9.035156 14.902344 8.898438 14.859375 8.734375 14.886719 C 8.566406 14.914062 8.453125 15.003906 8.382812 15.15625 C 8.3125 15.308594 8.324219 15.457031 8.410156 15.597656 C 8.496094 15.738281 8.625 15.816406 8.789062 15.824219 C 8.957031 15.832031 9.089844 15.769531 9.191406 15.632812 C 9.289062 15.5 9.3125 15.355469 9.257812 15.199219 L 11.058594 14.097656 C 11.148438 14.195312 11.261719 14.242188 11.398438 14.242188 C 11.453125 14.242188 11.507812 14.234375 11.558594 14.214844 L 11.90625 14.835938 C 11.78125 14.945312 11.730469 15.085938 11.753906 15.246094 C 11.773438 15.410156 11.859375 15.53125 12.007812 15.605469 C 12.15625 15.679688 12.300781 15.675781 12.445312 15.59375 C 12.589844 15.515625 12.667969 15.390625 12.683594 15.226562 C 12.699219 15.0625 12.640625 14.925781 12.511719 14.824219 C 12.386719 14.71875 12.242188 14.691406 12.082031 14.738281 L 11.730469 14.105469 C 11.847656 13.988281 11.890625 13.847656 11.859375 13.6875 C 11.832031 13.523438 11.742188 13.410156 11.59375 13.339844 L 12.097656 10.972656 C 12.109375 10.972656 12.121094 10.972656 12.132812 10.972656 C 12.175781 10.972656 12.214844 10.96875 12.253906 10.960938 L 12.710938 12.25 L 13.441406 14.488281 C 13.324219 14.566406 13.269531 14.679688 13.285156 14.824219 C 13.296875 14.964844 13.371094 15.066406 13.5 15.121094 L 13.042969 16.34375 C 12.699219 16.28125 12.476562 16.417969 12.375 16.753906 L 11.507812 16.660156 C 11.46875 16.453125 11.34375 16.351562 11.128906 16.363281 C 10.917969 16.371094 10.800781 16.484375 10.785156 16.695312 C 10.765625 16.910156 10.863281 17.039062 11.070312 17.082031 L 11.265625 19.726562 C 11.105469 19.773438 11.003906 19.878906 10.953125 20.039062 C 10.902344 20.195312 10.929688 20.34375 11.03125 20.472656 C 11.136719 20.605469 11.269531 20.664062 11.4375 20.652344 C 11.605469 20.636719 11.730469 20.558594 11.8125 20.414062 C 11.894531 20.269531 11.902344 20.125 11.828125 19.972656 C 11.753906 19.824219 11.636719 19.734375 11.472656 19.710938 L 11.273438 17.066406 C 11.375 17.03125 11.445312 16.960938 11.484375 16.863281 L 12.355469 16.957031 C 12.371094 17.175781 12.472656 17.335938 12.671875 17.4375 C 12.867188 17.539062 13.054688 17.53125 13.242188 17.414062 C 13.429688 17.300781 13.523438 17.132812 13.519531 16.914062 C 13.519531 16.691406 13.421875 16.527344 13.234375 16.414062 L 13.710938 15.148438 C 13.847656 15.125 13.941406 15.046875 13.988281 14.917969 C 14.039062 14.785156 14.019531 14.667969 13.929688 14.558594 L 14.359375 13.375 C 14.421875 13.390625 14.480469 13.402344 14.542969 13.402344 L 14.800781 16.628906 C 14.542969 16.691406 14.351562 16.941406 14.351562 17.199219 C 14.351562 17.453125 14.488281 17.632812 14.691406 17.726562 L 13.402344 21.691406 L 13.382812 21.691406 C 13.21875 21.691406 13.089844 21.757812 12.996094 21.894531 C 12.902344 22.03125 12.886719 22.175781 12.945312 22.332031 C 13.003906 22.484375 13.113281 22.582031 13.273438 22.621094 C 13.433594 22.660156 13.578125 22.625 13.699219 22.511719 C 13.824219 22.402344 13.875 22.265625 13.851562 22.101562 C 13.832031 21.9375 13.75 21.816406 13.601562 21.742188 L 14.886719 17.78125 C 14.902344 17.78125 14.765625 17.78125 14.933594 17.78125 C 15.105469 17.78125 15.519531 17.457031 15.519531 17.199219 C 15.519531 16.941406 15.425781 16.832031 15.28125 16.726562 L 15.503906 15.632812 C 15.796875 15.746094 16.046875 15.6875 16.253906 15.449219 C 16.464844 15.214844 16.492188 14.960938 16.34375 14.683594 L 18.550781 12.945312 C 18.558594 12.953125 18.566406 12.957031 18.570312 12.960938 L 17.589844 14.691406 C 17.542969 14.679688 17.492188 14.671875 17.445312 14.671875 C 17.21875 14.671875 17.066406 14.777344 16.988281 14.984375 C 16.90625 15.195312 16.953125 15.375 17.121094 15.523438 L 16.285156 17.953125 C 16.242188 17.941406 16.300781 17.933594 16.140625 17.933594 C 15.980469 17.933594 15.652344 18.152344 15.652344 18.421875 C 15.652344 18.746094 15.816406 18.910156 16.140625 18.910156 C 16.410156 18.910156 16.628906 18.628906 16.628906 18.421875 C 16.628906 18.214844 16.566406 18.144531 16.464844 18.054688 L 17.296875 15.625 L 17.324219 15.632812 L 17.8125 17.023438 C 17.625 17.066406 17.535156 17.183594 17.539062 17.375 C 17.539062 17.558594 17.699219 17.734375 17.898438 17.734375 C 18.097656 17.734375 18.257812 17.550781 18.257812 17.375 C 18.257812 17.195312 18.15625 17.082031 18.015625 17.03125 L 17.527344 15.640625 C 17.792969 15.59375 17.925781 15.4375 17.929688 15.167969 L 20.160156 14.71875 C 20.316406 15.015625 20.511719 15.042969 20.742188 14.796875 C 20.972656 14.554688 20.933594 14.363281 20.628906 14.222656 C 20.320312 14.085938 20.152344 14.183594 20.121094 14.519531 L 17.890625 14.964844 C 17.859375 14.898438 17.820312 14.84375 17.765625 14.792969 L 18.746094 13.0625 C 19.160156 13.210938 19.417969 13.070312 19.519531 12.644531 C 19.621094 12.214844 19.457031 11.976562 19.019531 11.917969 L 18.945312 10.207031 C 19.042969 10.183594 19.132812 10.140625 19.207031 10.070312 L 20.925781 11.449219 C 20.820312 11.636719 20.820312 11.824219 20.917969 12.011719 C 21.015625 12.203125 21.171875 12.304688 21.386719 12.328125 C 21.597656 12.347656 21.769531 12.273438 21.902344 12.109375 C 22.039062 11.945312 22.070312 11.757812 22.007812 11.554688 C 21.941406 11.355469 21.804688 11.222656 21.601562 11.167969 C 21.394531 11.109375 21.210938 11.152344 21.050781 11.292969 L 19.339844 9.914062 C 19.558594 9.515625 19.453125 9.238281 19.03125 9.074219 C 18.609375 8.914062 18.347656 9.050781 18.242188 9.492188 L 16.292969 9.378906 C 16.285156 9.246094 16.246094 9.121094 16.179688 9.003906 L 17.066406 8.34375 C 17.214844 8.480469 17.386719 8.523438 17.585938 8.472656 C 17.78125 8.421875 17.914062 8.300781 17.976562 8.105469 L 20.5 8.457031 C 20.515625 8.605469 20.589844 8.71875 20.722656 8.789062 C 20.855469 8.863281 20.988281 8.867188 21.125 8.796875 C 21.257812 8.730469 21.335938 8.621094 21.355469 8.46875 C 21.378906 8.320312 21.332031 8.195312 21.21875 8.09375 C 21.109375 7.992188 20.980469 7.957031 20.832031 7.992188 C 20.683594 8.027344 20.582031 8.113281 20.527344 8.253906 L 18.003906 7.90625 C 18 7.828125 17.984375 7.753906 17.949219 7.6875 L 19.183594 6.761719 C 19.300781 6.859375 19.433594 6.886719 19.578125 6.84375 C 19.722656 6.804688 19.820312 6.710938 19.867188 6.566406 C 19.914062 6.425781 19.894531 6.292969 19.804688 6.171875 C 19.714844 6.050781 19.59375 5.992188 19.441406 6 C 19.292969 6.003906 19.175781 6.070312 19.09375 6.199219 C 19.015625 6.328125 19.003906 6.460938 19.0625 6.597656 L 17.824219 7.523438 C 17.5625 7.277344 17.300781 7.28125 17.046875 7.539062 L 15.644531 6.582031 C 15.695312 6.441406 15.679688 6.308594 15.59375 6.183594 C 15.507812 6.058594 15.390625 5.996094 15.238281 5.996094 Z M 23.097656 10.335938 C 23.570312 18.273438 14.359375 16.757812 14.207031 26.121094 C 15.4375 24.144531 16.746094 23.355469 18.136719 23.753906 C 20.132812 25.085938 21.386719 25.101562 21.894531 23.800781 C 21.816406 23.28125 21.945312 22.921875 22.285156 22.726562 C 22.894531 22.679688 23.125 22.378906 22.976562 21.824219 C 23.492188 21.953125 23.78125 21.820312 23.835938 21.425781 C 23.632812 20.699219 24.011719 20.328125 24.964844 20.300781 C 25.640625 20.246094 25.949219 20 25.886719 19.5625 C 25.648438 18.355469 25.480469 17.5 25.390625 16.996094 C 25.167969 16.226562 25.292969 15.488281 25.757812 14.789062 C 27.484375 10.921875 26.535156 7.554688 22.914062 4.691406 C 17.933594 1.316406 13.363281 1.914062 10.546875 5.109375 C 11.632812 4.152344 12.886719 3.558594 14.3125 3.320312 C 15.742188 3.085938 17.121094 3.246094 18.453125 3.800781 C 19.789062 4.359375 20.875 5.222656 21.710938 6.402344 C 22.550781 7.582031 23.011719 8.890625 23.097656 10.335938 Z M 23.097656 10.335938 " clip-rule="evenodd"/></clipPath><clipPath id="46f6f23c93"><path d="M 12.824219 6.691406 L 14.273438 6.691406 L 14.273438 8.144531 L 12.824219 8.144531 Z M 12.824219 6.691406 " clip-rule="nonzero"/></clipPath></defs><g clip-path="url(#7d2e171def)"><path fill="#b4c9e5" d="M 15.097656 16.636719 L 15.328125 15.53125 C 15.175781 15.410156 15.089844 15.253906 15.074219 15.0625 C 15.054688 14.867188 15.113281 14.699219 15.242188 14.554688 C 15.367188 14.40625 15.53125 14.332031 15.722656 14.324219 C 15.917969 14.316406 16.085938 14.382812 16.222656 14.519531 L 18.425781 12.785156 C 18.398438 12.730469 18.378906 12.675781 18.367188 12.617188 L 15.527344 12.527344 C 15.511719 12.746094 15.433594 12.933594 15.285156 13.097656 C 15.140625 13.257812 14.960938 13.355469 14.746094 13.390625 L 15.003906 16.617188 C 15.035156 16.621094 15.066406 16.628906 15.097656 16.636719 M 15.300781 10.289062 C 15.34375 10.296875 15.386719 10.300781 15.429688 10.300781 C 15.640625 10.300781 15.824219 10.230469 15.984375 10.097656 C 16.144531 9.960938 16.242188 9.792969 16.28125 9.585938 L 18.230469 9.695312 C 18.246094 9.832031 18.304688 9.949219 18.398438 10.042969 C 18.496094 10.140625 18.609375 10.199219 18.746094 10.214844 L 18.820312 11.925781 C 18.558594 11.984375 18.40625 12.148438 18.363281 12.414062 L 15.515625 12.324219 C 15.460938 11.972656 15.269531 11.734375 14.9375 11.601562 Z M 14.625 9.753906 C 14.71875 9.980469 14.875 10.140625 15.101562 10.234375 C 14.960938 10.730469 14.863281 11.066406 14.71875 11.542969 C 14.675781 11.539062 14.867188 11.585938 14.589844 11.535156 C 13.933594 11.40625 13.113281 12.625 14.152344 13.296875 C 14.039062 13.625 13.882812 14.097656 13.757812 14.441406 C 13.71875 14.429688 13.683594 14.421875 13.644531 14.421875 L 13.632812 14.421875 C 13.242188 13.226562 12.855469 12.070312 12.445312 10.890625 C 12.679688 10.765625 12.796875 10.570312 12.796875 10.308594 C 12.796875 10.285156 12.792969 10.261719 12.792969 10.238281 Z M 13.242188 7.578125 C 13.292969 7.695312 13.375 7.773438 13.496094 7.816406 C 13.613281 7.855469 13.726562 7.847656 13.839844 7.789062 L 14.785156 8.859375 C 14.609375 9.058594 14.539062 9.289062 14.574219 9.554688 L 12.742188 10.039062 C 12.679688 9.894531 12.578125 9.789062 12.4375 9.714844 C 12.296875 9.644531 12.148438 9.625 11.996094 9.65625 C 11.84375 9.6875 11.714844 9.765625 11.617188 9.886719 C 11.515625 10.007812 11.46875 10.148438 11.46875 10.304688 C 11.46875 10.328125 11.46875 10.351562 11.472656 10.375 L 10.269531 10.695312 C 10.253906 10.660156 10.230469 10.628906 10.207031 10.601562 L 11.960938 8.128906 C 11.988281 8.136719 12.015625 8.140625 12.042969 8.140625 C 12.222656 8.140625 12.324219 8.050781 12.34375 7.875 Z M 15.238281 5.996094 C 15.167969 5.996094 15.101562 6.015625 15.035156 6.046875 C 14.972656 6.082031 14.921875 6.125 14.882812 6.1875 C 14.839844 6.246094 14.816406 6.308594 14.808594 6.378906 C 14.800781 6.449219 14.808594 6.519531 14.835938 6.585938 C 14.859375 6.652344 14.898438 6.707031 14.953125 6.753906 C 15.007812 6.800781 15.070312 6.832031 15.136719 6.851562 C 15.207031 6.867188 15.277344 6.867188 15.34375 6.847656 C 15.414062 6.832031 15.476562 6.796875 15.527344 6.75 L 16.933594 7.707031 C 16.863281 7.867188 16.867188 8.023438 16.941406 8.179688 L 16.058594 8.839844 C 15.910156 8.6875 15.730469 8.597656 15.519531 8.578125 C 15.308594 8.554688 15.113281 8.605469 14.941406 8.726562 L 13.992188 7.65625 C 14.125 7.46875 14.113281 7.292969 13.964844 7.121094 C 13.8125 6.953125 13.636719 6.921875 13.4375 7.027344 L 12.328125 5.773438 C 12.335938 5.746094 12.339844 5.722656 12.339844 5.695312 C 12.339844 5.660156 12.332031 5.628906 12.324219 5.597656 L 13.195312 5.246094 C 13.316406 5.414062 13.476562 5.46875 13.675781 5.402344 C 13.875 5.339844 13.976562 5.203125 13.976562 4.992188 C 13.976562 4.972656 13.976562 4.949219 13.972656 4.929688 L 14.820312 4.585938 C 14.886719 4.660156 14.96875 4.695312 15.066406 4.6875 C 15.167969 4.683594 15.242188 4.636719 15.300781 4.554688 L 16.558594 4.878906 C 16.558594 4.886719 16.558594 4.890625 16.558594 4.894531 C 16.558594 4.972656 16.574219 5.046875 16.613281 5.117188 C 16.648438 5.183594 16.699219 5.242188 16.761719 5.285156 C 16.828125 5.328125 16.898438 5.355469 16.972656 5.367188 C 17.050781 5.375 17.125 5.363281 17.199219 5.335938 C 17.273438 5.308594 17.332031 5.265625 17.386719 5.207031 C 17.4375 5.148438 17.472656 5.082031 17.488281 5.007812 C 17.507812 4.929688 17.507812 4.855469 17.488281 4.78125 C 17.46875 4.703125 17.433594 4.636719 17.378906 4.578125 C 17.328125 4.523438 17.265625 4.480469 17.191406 4.453125 C 17.121094 4.425781 17.042969 4.417969 16.96875 4.429688 C 16.890625 4.4375 16.820312 4.464844 16.757812 4.511719 C 16.691406 4.554688 16.644531 4.613281 16.609375 4.683594 L 15.351562 4.359375 C 15.34375 4.277344 15.308594 4.210938 15.246094 4.15625 C 15.1875 4.101562 15.113281 4.078125 15.035156 4.078125 C 14.953125 4.082031 14.882812 4.113281 14.828125 4.175781 C 14.769531 4.234375 14.742188 4.304688 14.742188 4.386719 L 14.742188 4.398438 L 13.894531 4.742188 C 13.773438 4.570312 13.613281 4.515625 13.414062 4.582031 C 13.210938 4.644531 13.113281 4.78125 13.113281 4.992188 C 13.113281 5.011719 13.113281 5.035156 13.117188 5.054688 L 12.1875 5.429688 C 12.035156 5.34375 11.902344 5.367188 11.796875 5.503906 C 11.6875 5.640625 11.691406 5.773438 11.8125 5.902344 C 11.933594 6.03125 12.066406 6.042969 12.207031 5.941406 L 13.285156 7.160156 C 13.25 7.207031 13.226562 7.261719 13.214844 7.320312 L 12.265625 7.632812 C 12.203125 7.5625 12.125 7.527344 12.03125 7.53125 C 11.9375 7.535156 11.859375 7.574219 11.800781 7.648438 L 11.089844 7.402344 C 11.089844 7.390625 11.089844 7.371094 11.089844 7.355469 C 11.089844 7.28125 11.074219 7.210938 11.039062 7.148438 C 11.007812 7.082031 10.957031 7.027344 10.898438 6.984375 C 10.835938 6.941406 10.769531 6.914062 10.699219 6.902344 C 10.625 6.894531 10.550781 6.902344 10.480469 6.925781 C 10.414062 6.949219 10.351562 6.988281 10.300781 7.042969 C 10.25 7.097656 10.214844 7.160156 10.195312 7.230469 C 10.175781 7.300781 10.171875 7.375 10.1875 7.445312 C 10.199219 7.519531 10.230469 7.585938 10.277344 7.644531 C 10.324219 7.699219 10.382812 7.746094 10.449219 7.773438 C 10.515625 7.804688 10.589844 7.816406 10.660156 7.8125 C 10.734375 7.808594 10.804688 7.785156 10.867188 7.75 C 10.933594 7.710938 10.984375 7.660156 11.023438 7.597656 L 11.734375 7.839844 C 11.734375 7.859375 11.738281 7.875 11.742188 7.894531 L 9.640625 9.125 C 9.589844 9.066406 9.527344 9.027344 9.457031 9.003906 C 9.382812 8.980469 9.3125 8.972656 9.238281 8.984375 C 9.164062 8.996094 9.09375 9.023438 9.035156 9.070312 C 8.972656 9.113281 8.929688 9.171875 8.894531 9.238281 C 8.863281 9.308594 8.847656 9.378906 8.851562 9.453125 C 8.855469 9.53125 8.875 9.601562 8.914062 9.664062 C 8.953125 9.730469 9.003906 9.78125 9.066406 9.824219 C 9.128906 9.863281 9.199219 9.886719 9.273438 9.890625 C 9.351562 9.894531 9.421875 9.882812 9.492188 9.851562 C 9.558594 9.820312 9.617188 9.777344 9.664062 9.71875 C 9.710938 9.660156 9.742188 9.59375 9.757812 9.519531 C 9.769531 9.445312 9.765625 9.371094 9.742188 9.300781 L 11.6875 8.160156 L 10.042969 10.484375 C 9.914062 10.433594 9.789062 10.4375 9.664062 10.496094 C 9.542969 10.558594 9.460938 10.65625 9.425781 10.789062 C 9.390625 10.921875 9.410156 11.046875 9.488281 11.160156 C 9.566406 11.273438 9.671875 11.339844 9.808594 11.359375 C 9.945312 11.375 10.066406 11.339844 10.167969 11.25 C 10.273438 11.160156 10.324219 11.042969 10.324219 10.90625 C 10.324219 10.902344 10.324219 10.898438 10.324219 10.890625 L 11.523438 10.574219 C 11.597656 10.746094 11.722656 10.863281 11.898438 10.929688 L 11.394531 13.296875 C 11.277344 13.296875 11.171875 13.335938 11.085938 13.414062 L 10.363281 12.886719 C 10.394531 12.816406 10.410156 12.742188 10.402344 12.664062 C 10.398438 12.585938 10.375 12.511719 10.332031 12.445312 C 10.289062 12.378906 10.234375 12.328125 10.167969 12.289062 C 10.101562 12.25 10.027344 12.226562 9.949219 12.226562 C 9.871094 12.222656 9.796875 12.238281 9.726562 12.273438 C 9.65625 12.304688 9.597656 12.355469 9.550781 12.417969 C 9.503906 12.480469 9.476562 12.550781 9.464844 12.628906 C 9.453125 12.707031 9.460938 12.78125 9.488281 12.855469 C 9.511719 12.929688 9.554688 12.992188 9.613281 13.046875 C 9.671875 13.097656 9.738281 13.136719 9.8125 13.15625 C 9.890625 13.175781 9.964844 13.175781 10.042969 13.15625 C 10.117188 13.140625 10.183594 13.105469 10.242188 13.050781 L 10.964844 13.578125 C 10.914062 13.691406 10.910156 13.808594 10.949219 13.921875 L 9.152344 15.023438 C 9.097656 14.96875 9.035156 14.925781 8.960938 14.902344 C 8.886719 14.878906 8.808594 14.871094 8.734375 14.886719 C 8.65625 14.898438 8.585938 14.929688 8.523438 14.976562 C 8.460938 15.027344 8.414062 15.085938 8.382812 15.15625 C 8.351562 15.226562 8.335938 15.300781 8.34375 15.378906 C 8.347656 15.457031 8.371094 15.53125 8.410156 15.597656 C 8.449219 15.664062 8.503906 15.71875 8.574219 15.757812 C 8.640625 15.796875 8.710938 15.820312 8.789062 15.824219 C 8.867188 15.828125 8.941406 15.8125 9.015625 15.777344 C 9.085938 15.746094 9.144531 15.695312 9.191406 15.632812 C 9.238281 15.570312 9.265625 15.5 9.277344 15.425781 C 9.292969 15.347656 9.285156 15.273438 9.257812 15.199219 L 11.058594 14.097656 C 11.148438 14.195312 11.261719 14.242188 11.398438 14.242188 C 11.453125 14.242188 11.507812 14.234375 11.558594 14.214844 L 11.90625 14.835938 C 11.847656 14.886719 11.804688 14.949219 11.777344 15.023438 C 11.75 15.097656 11.742188 15.171875 11.753906 15.246094 C 11.765625 15.324219 11.792969 15.394531 11.835938 15.457031 C 11.882812 15.519531 11.9375 15.570312 12.007812 15.605469 C 12.078125 15.640625 12.152344 15.65625 12.226562 15.652344 C 12.304688 15.652344 12.378906 15.632812 12.445312 15.59375 C 12.515625 15.558594 12.570312 15.503906 12.609375 15.441406 C 12.652344 15.375 12.675781 15.304688 12.683594 15.226562 C 12.691406 15.148438 12.679688 15.074219 12.648438 15.003906 C 12.617188 14.933594 12.574219 14.871094 12.511719 14.824219 C 12.453125 14.773438 12.386719 14.742188 12.308594 14.726562 C 12.234375 14.710938 12.160156 14.714844 12.082031 14.738281 L 11.730469 14.105469 C 11.785156 14.050781 11.824219 13.984375 11.847656 13.910156 C 11.871094 13.835938 11.875 13.761719 11.859375 13.6875 C 11.847656 13.609375 11.816406 13.542969 11.769531 13.480469 C 11.722656 13.417969 11.664062 13.371094 11.59375 13.339844 L 12.097656 10.972656 C 12.109375 10.972656 12.121094 10.972656 12.132812 10.972656 C 12.175781 10.972656 12.214844 10.96875 12.253906 10.960938 L 12.710938 12.25 L 13.441406 14.488281 C 13.324219 14.566406 13.269531 14.679688 13.285156 14.824219 C 13.296875 14.964844 13.371094 15.066406 13.5 15.121094 L 13.042969 16.34375 C 12.894531 16.316406 12.757812 16.34375 12.628906 16.421875 C 12.503906 16.5 12.417969 16.609375 12.375 16.753906 L 11.507812 16.660156 C 11.488281 16.570312 11.445312 16.496094 11.375 16.441406 C 11.304688 16.382812 11.222656 16.359375 11.128906 16.363281 C 11.039062 16.367188 10.960938 16.398438 10.894531 16.464844 C 10.828125 16.527344 10.792969 16.605469 10.785156 16.695312 C 10.777344 16.789062 10.800781 16.871094 10.855469 16.945312 C 10.910156 17.015625 10.980469 17.0625 11.070312 17.082031 L 11.265625 19.726562 C 11.191406 19.75 11.125 19.789062 11.070312 19.84375 C 11.015625 19.898438 10.976562 19.960938 10.953125 20.039062 C 10.929688 20.113281 10.925781 20.1875 10.9375 20.265625 C 10.953125 20.34375 10.984375 20.410156 11.03125 20.472656 C 11.082031 20.535156 11.140625 20.582031 11.210938 20.613281 C 11.285156 20.644531 11.359375 20.65625 11.4375 20.652344 C 11.515625 20.644531 11.585938 20.621094 11.652344 20.578125 C 11.71875 20.539062 11.773438 20.484375 11.8125 20.414062 C 11.851562 20.347656 11.871094 20.273438 11.875 20.195312 C 11.878906 20.117188 11.863281 20.042969 11.828125 19.972656 C 11.792969 19.902344 11.746094 19.84375 11.683594 19.796875 C 11.617188 19.753906 11.546875 19.722656 11.472656 19.710938 L 11.273438 17.066406 C 11.375 17.03125 11.445312 16.960938 11.484375 16.863281 L 12.355469 16.957031 C 12.363281 17.058594 12.394531 17.152344 12.449219 17.238281 C 12.503906 17.324219 12.578125 17.390625 12.671875 17.4375 C 12.761719 17.484375 12.859375 17.503906 12.960938 17.5 C 13.0625 17.496094 13.15625 17.46875 13.242188 17.414062 C 13.332031 17.363281 13.398438 17.289062 13.449219 17.199219 C 13.496094 17.109375 13.523438 17.015625 13.519531 16.914062 C 13.519531 16.808594 13.496094 16.714844 13.441406 16.625 C 13.390625 16.539062 13.324219 16.46875 13.234375 16.414062 L 13.710938 15.148438 C 13.773438 15.136719 13.832031 15.109375 13.878906 15.070312 C 13.929688 15.027344 13.964844 14.976562 13.988281 14.917969 C 14.011719 14.855469 14.015625 14.792969 14.007812 14.730469 C 13.996094 14.667969 13.972656 14.609375 13.929688 14.558594 L 14.359375 13.375 C 14.421875 13.390625 14.480469 13.402344 14.542969 13.402344 L 14.800781 16.628906 C 14.542969 16.691406 14.351562 16.941406 14.351562 17.199219 C 14.351562 17.453125 14.488281 17.632812 14.691406 17.726562 L 13.402344 21.691406 L 13.382812 21.691406 C 13.308594 21.691406 13.234375 21.707031 13.164062 21.746094 C 13.097656 21.78125 13.039062 21.832031 12.996094 21.894531 C 12.953125 21.957031 12.925781 22.027344 12.917969 22.105469 C 12.90625 22.183594 12.917969 22.257812 12.945312 22.332031 C 12.972656 22.402344 13.015625 22.464844 13.074219 22.515625 C 13.132812 22.566406 13.199219 22.601562 13.273438 22.621094 C 13.351562 22.636719 13.425781 22.636719 13.5 22.617188 C 13.574219 22.601562 13.640625 22.566406 13.699219 22.511719 C 13.757812 22.460938 13.800781 22.398438 13.828125 22.328125 C 13.855469 22.253906 13.863281 22.179688 13.851562 22.101562 C 13.84375 22.023438 13.816406 21.953125 13.773438 21.890625 C 13.726562 21.828125 13.671875 21.777344 13.601562 21.742188 L 14.886719 17.78125 C 14.902344 17.78125 14.765625 17.78125 14.933594 17.78125 C 15.105469 17.78125 15.519531 17.457031 15.519531 17.199219 C 15.519531 16.941406 15.425781 16.832031 15.28125 16.726562 L 15.503906 15.632812 C 15.796875 15.746094 16.046875 15.6875 16.253906 15.449219 C 16.464844 15.214844 16.492188 14.960938 16.34375 14.683594 L 18.550781 12.945312 C 18.558594 12.953125 18.566406 12.957031 18.570312 12.960938 L 17.589844 14.691406 C 17.542969 14.679688 17.492188 14.671875 17.445312 14.671875 C 17.21875 14.671875 17.066406 14.777344 16.988281 14.984375 C 16.90625 15.195312 16.953125 15.375 17.121094 15.523438 L 16.285156 17.953125 C 16.242188 17.941406 16.300781 17.933594 16.140625 17.933594 C 15.980469 17.933594 15.652344 18.152344 15.652344 18.421875 C 15.652344 18.554688 15.699219 18.671875 15.796875 18.765625 C 15.890625 18.863281 16.003906 18.910156 16.140625 18.910156 C 16.410156 18.910156 16.628906 18.628906 16.628906 18.421875 C 16.628906 18.214844 16.566406 18.144531 16.464844 18.054688 L 17.296875 15.625 L 17.324219 15.632812 L 17.8125 17.023438 C 17.625 17.066406 17.535156 17.183594 17.539062 17.375 C 17.539062 17.558594 17.699219 17.734375 17.898438 17.734375 C 18.097656 17.734375 18.257812 17.550781 18.257812 17.375 C 18.257812 17.195312 18.15625 17.082031 18.015625 17.03125 L 17.527344 15.640625 C 17.640625 15.621094 17.738281 15.566406 17.8125 15.476562 C 17.890625 15.386719 17.929688 15.285156 17.929688 15.167969 L 20.160156 14.71875 C 20.21875 14.828125 20.308594 14.890625 20.429688 14.910156 C 20.554688 14.925781 20.65625 14.886719 20.742188 14.796875 C 20.828125 14.707031 20.855469 14.601562 20.832031 14.480469 C 20.808594 14.359375 20.738281 14.273438 20.628906 14.222656 C 20.515625 14.171875 20.40625 14.179688 20.296875 14.242188 C 20.191406 14.304688 20.132812 14.394531 20.121094 14.519531 L 17.890625 14.964844 C 17.859375 14.898438 17.820312 14.84375 17.765625 14.792969 L 18.746094 13.0625 C 18.914062 13.121094 19.074219 13.109375 19.226562 13.023438 C 19.382812 12.941406 19.480469 12.8125 19.519531 12.644531 C 19.5625 12.472656 19.53125 12.3125 19.433594 12.167969 C 19.332031 12.023438 19.195312 11.941406 19.019531 11.917969 L 18.945312 10.207031 C 19.042969 10.183594 19.132812 10.140625 19.207031 10.070312 L 20.925781 11.449219 C 20.875 11.539062 20.851562 11.632812 20.851562 11.730469 C 20.847656 11.832031 20.871094 11.925781 20.917969 12.011719 C 20.964844 12.101562 21.027344 12.171875 21.113281 12.230469 C 21.195312 12.285156 21.285156 12.316406 21.386719 12.328125 C 21.484375 12.335938 21.578125 12.324219 21.671875 12.285156 C 21.761719 12.246094 21.839844 12.1875 21.902344 12.109375 C 21.964844 12.03125 22.007812 11.945312 22.023438 11.847656 C 22.042969 11.746094 22.035156 11.652344 22.007812 11.554688 C 21.976562 11.460938 21.925781 11.378906 21.851562 11.308594 C 21.78125 11.242188 21.695312 11.195312 21.601562 11.167969 C 21.503906 11.140625 21.40625 11.136719 21.3125 11.160156 C 21.214844 11.183594 21.128906 11.226562 21.050781 11.292969 L 19.339844 9.914062 C 19.425781 9.753906 19.4375 9.59375 19.375 9.425781 C 19.316406 9.253906 19.199219 9.140625 19.03125 9.074219 C 18.867188 9.011719 18.703125 9.019531 18.542969 9.105469 C 18.386719 9.1875 18.285156 9.316406 18.242188 9.492188 L 16.292969 9.378906 C 16.285156 9.246094 16.246094 9.121094 16.179688 9.003906 L 17.066406 8.34375 C 17.136719 8.40625 17.214844 8.449219 17.308594 8.472656 C 17.402344 8.496094 17.492188 8.496094 17.585938 8.472656 C 17.675781 8.449219 17.757812 8.40625 17.828125 8.339844 C 17.898438 8.273438 17.945312 8.195312 17.976562 8.105469 L 20.5 8.457031 C 20.507812 8.527344 20.53125 8.589844 20.570312 8.652344 C 20.609375 8.710938 20.660156 8.757812 20.722656 8.789062 C 20.785156 8.824219 20.851562 8.84375 20.921875 8.84375 C 20.992188 8.84375 21.0625 8.828125 21.125 8.796875 C 21.1875 8.765625 21.238281 8.71875 21.28125 8.664062 C 21.320312 8.605469 21.347656 8.539062 21.355469 8.46875 C 21.367188 8.398438 21.359375 8.332031 21.335938 8.265625 C 21.3125 8.199219 21.273438 8.140625 21.21875 8.09375 C 21.167969 8.046875 21.105469 8.011719 21.039062 7.996094 C 20.96875 7.976562 20.902344 7.976562 20.832031 7.992188 C 20.761719 8.007812 20.703125 8.039062 20.648438 8.085938 C 20.59375 8.132812 20.554688 8.1875 20.527344 8.253906 L 18.003906 7.90625 C 18 7.828125 17.984375 7.753906 17.949219 7.6875 L 19.183594 6.761719 C 19.238281 6.808594 19.300781 6.835938 19.371094 6.851562 C 19.441406 6.867188 19.507812 6.863281 19.578125 6.84375 C 19.644531 6.824219 19.703125 6.792969 19.757812 6.742188 C 19.808594 6.691406 19.84375 6.636719 19.867188 6.566406 C 19.890625 6.5 19.894531 6.433594 19.882812 6.363281 C 19.875 6.292969 19.847656 6.230469 19.804688 6.171875 C 19.761719 6.117188 19.707031 6.070312 19.644531 6.042969 C 19.582031 6.011719 19.511719 5.996094 19.441406 6 C 19.371094 6.003906 19.304688 6.019531 19.242188 6.054688 C 19.183594 6.09375 19.132812 6.140625 19.09375 6.199219 C 19.058594 6.257812 19.035156 6.324219 19.03125 6.394531 C 19.023438 6.464844 19.035156 6.535156 19.0625 6.597656 L 17.824219 7.523438 C 17.714844 7.417969 17.585938 7.371094 17.433594 7.371094 C 17.28125 7.375 17.152344 7.429688 17.046875 7.539062 L 15.644531 6.582031 C 15.667969 6.515625 15.675781 6.445312 15.667969 6.375 C 15.660156 6.304688 15.632812 6.242188 15.59375 6.183594 C 15.554688 6.125 15.5 6.082031 15.4375 6.046875 C 15.375 6.015625 15.308594 5.996094 15.238281 5.996094 Z M 23.097656 10.335938 C 23.570312 18.273438 14.359375 16.757812 14.207031 26.121094 C 15.4375 24.144531 16.746094 23.355469 18.136719 23.753906 C 20.132812 25.085938 21.386719 25.101562 21.894531 23.800781 C 21.816406 23.28125 21.945312 22.921875 22.285156 22.726562 C 22.894531 22.679688 23.125 22.378906 22.976562 21.824219 C 23.492188 21.953125 23.78125 21.820312 23.835938 21.425781 C 23.632812 20.699219 24.011719 20.328125 24.964844 20.300781 C 25.640625 20.246094 25.949219 20 25.886719 19.5625 C 25.648438 18.355469 25.480469 17.5 25.390625 16.996094 C 25.167969 16.226562 25.292969 15.488281 25.757812 14.789062 C 27.484375 10.921875 26.535156 7.554688 22.914062 4.691406 C 17.933594 1.316406 13.363281 1.914062 10.546875 5.109375 C 11.082031 4.640625 11.664062 4.253906 12.304688 3.949219 C 12.945312 3.648438 13.617188 3.4375 14.3125 3.320312 C 15.011719 3.207031 15.714844 3.1875 16.417969 3.269531 C 17.121094 3.351562 17.800781 3.53125 18.453125 3.800781 C 19.109375 4.074219 19.710938 4.429688 20.265625 4.875 C 20.820312 5.316406 21.300781 5.824219 21.710938 6.402344 C 22.121094 6.980469 22.445312 7.601562 22.679688 8.269531 C 22.914062 8.941406 23.054688 9.628906 23.097656 10.335938 Z M 23.097656 10.335938 " fill-opacity="1" fill-rule="evenodd"/></g><g clip-path="url(#b215cb7fa2)"><g clip-path="url(#3b9b1e276d)"><path fill="#b4c9e5" d="M 8.339844 1.316406 L 27.484375 1.316406 L 27.484375 26.121094 L 8.339844 26.121094 Z M 8.339844 1.316406 " fill-opacity="1" fill-rule="nonzero"/></g></g><g clip-path="url(#46f6f23c93)"><path fill="#c80006" d="M 14.257812 7.40625 C 14.265625 7.792969 13.925781 8.144531 13.542969 8.140625 C 13.15625 8.140625 12.828125 7.792969 12.832031 7.394531 C 12.832031 7.011719 13.140625 6.691406 13.507812 6.699219 C 13.921875 6.707031 14.25 7.015625 14.257812 7.40625 Z M 14.257812 7.40625 " fill-opacity="1" fill-rule="nonzero"/><path fill="#c80006" d="M 14.257812 7.40625 C 14.265625 7.792969 13.925781 8.144531 13.542969 8.140625 C 13.15625 8.140625 12.828125 7.792969 12.832031 7.394531 C 12.832031 7.011719 13.140625 6.691406 13.507812 6.699219 C 13.921875 6.707031 14.25 7.015625 14.257812 7.40625 Z M 14.257812 7.40625 " fill-opacity="1" fill-rule="nonzero"/></g></svg>